<svg xmlns="http://www.w3.org/2000/svg" width="1200" height="630" viewBox="0 0 1200 630" role="img" aria-labelledby="title">
  <title id="title">Colorday mosaic preview</title>
  <rect width="1200" height="630" fill="#f8fafc"/>
  <g transform="translate(105 45)">
    <rect width="180" height="180" rx="18" fill="#E85D4F"/>
    <rect x="195" width="180" height="180" rx="18" fill="#F2C14E"/>
    <rect x="390" width="180" height="180" rx="18" fill="#4D9078"/>
    <rect x="585" width="180" height="180" rx="18" fill="#4ECDC4"/>
    <rect x="780" width="180" height="180" rx="18" fill="#486581"/>
    <rect y="195" width="180" height="180" rx="18" fill="#A855F7"/>
    <rect x="195" y="195" width="180" height="180" rx="18" fill="#FF9F7A"/>
    <rect x="390" y="195" width="180" height="180" rx="18" fill="#2B7A78"/>
    <rect x="585" y="195" width="180" height="180" rx="18" fill="#102A43"/>
    <rect x="780" y="195" width="180" height="180" rx="18" fill="#D9E2EC"/>
    <rect y="390" width="180" height="150" rx="18" fill="#7C8B5F"/>
    <rect x="195" y="390" width="180" height="150" rx="18" fill="#6B1E2A"/>
    <rect x="390" y="390" width="180" height="150" rx="18" fill="#F78154"/>
    <rect x="585" y="390" width="180" height="150" rx="18" fill="#3F5D3A"/>
    <rect x="780" y="390" width="180" height="150" rx="18" fill="#17252A"/>
  </g>
</svg>
